<?xml version="1.0" encoding="utf-8"?>
<!-- Generator: Adobe Illustrator 24.1.2, SVG Export Plug-In . SVG Version: 6.00 Build 0)  -->
<svg version="1.1" id="Capa_1" xmlns="http://www.w3.org/2000/svg" xmlns:xlink="http://www.w3.org/1999/xlink" x="0px" y="0px"
	 viewBox="0 0 477.5 477.5" style="enable-background:new 0 0 477.5 477.5;" xml:space="preserve">
<style type="text/css">
	.st0{fill:#FFFFFF;}
	.st1{fill:none;}
</style>
<g>
	<g>
		<path class="st0" d="M213.3,104.5c-5.3-3-11.8-3-17.1,0l-115.5,66H17.1c-9.4,0-17.1,7.6-17.1,17.1v102.4c0,9.4,7.6,17.1,17.1,17.1
			h63.7l115.5,66c8.2,4.7,18.6,1.8,23.3-6.4c1.5-2.6,2.2-5.5,2.2-8.5V119.2C221.9,113.1,218.6,107.5,213.3,104.5z"/>
	</g>
</g>
<g>
	<g>
		<path id="a" class="st1" d="M286.4,176.8c-5.9-7.3-16.6-8.5-24-2.6c-7.3,5.9-8.5,16.6-2.6,24c0,0,0,0,0,0
			c17.6,24.1,17.6,56.9,0,81c-5.9,7.3-4.8,18.1,2.5,24c7.3,6,18.1,4.8,24-2.5c0,0,0.1-0.1,0.1-0.1
			C314.3,264,314.3,213.3,286.4,176.8z"/>
	</g>
</g>
<g>
	<g>
		<path class="st1" d="M354.6,125.6c-5.9-7.3-16.6-8.5-24-2.6c-7.3,5.9-8.5,16.6-2.6,24c0,0,0,0,0,0c40.7,54.4,40.7,129,0,183.4
			c-6,7.3-4.8,18.1,2.5,24c7.3,6,18.1,4.8,24-2.5c0,0,0.1-0.1,0.1-0.1C404.8,284.7,404.8,192.7,354.6,125.6z"/>
	</g>
</g>
<g>
	<g>
		<path class="st1" d="M422.9,74.4c-6-7.3-16.7-8.4-24-2.5c-7.3,5.9-8.4,16.5-2.6,23.9c63.4,84.7,63.4,201.1,0,285.8
			c-6,7.3-4.8,18.1,2.5,24s18.1,4.8,24-2.5c0,0,0.1-0.1,0.1-0.1C495.7,305.6,495.7,171.8,422.9,74.4z"/>
	</g>
</g>
</svg>
