<svg id="Capa_1" data-name="Capa 1" xmlns="http://www.w3.org/2000/svg" viewBox="0 0 477.53 341.33"><defs><style>.cls-1{fill:#fff;}.cls-2{fill:none;}</style></defs><path class="cls-1" d="M213.33,104.46a17,17,0,0,0-17.06,0l-115.48,66H17.07A17.07,17.07,0,0,0,0,187.49v102.4A17.07,17.07,0,0,0,17.07,307H80.79l115.54,66a17.07,17.07,0,0,0,25.54-14.81V119.22A17.07,17.07,0,0,0,213.33,104.46Z" transform="translate(0 -68.1)"/><path id="a" class="cls-1" d="M286.36,176.79a17.07,17.07,0,0,0-26.59,21.4h0a68.57,68.57,0,0,1,0,81,17.07,17.07,0,1,0,26.47,21.55l.12-.15A102,102,0,0,0,286.36,176.79Z" transform="translate(0 -68.1)"/><path class="cls-1" d="M354.63,125.59A17.07,17.07,0,0,0,328,147h0a153.15,153.15,0,0,1,0,183.4,17.07,17.07,0,1,0,26.47,21.55l.12-.15A188.88,188.88,0,0,0,354.63,125.59Z" transform="translate(0 -68.1)"/><path class="cls-2" d="M422.89,74.39a17.07,17.07,0,0,0-26.59,21.4,238.62,238.62,0,0,1,0,285.8,17.07,17.07,0,0,0,26.48,21.55l.12-.15A274.37,274.37,0,0,0,422.89,74.39Z" transform="translate(0 -68.1)"/></svg>